# This file was exported by MeshSaver, written By Joshua Simons

g default
v -0.110592 -0.169697 -0.104416 
v -0.223812 0.007914 2.378346 
v 0.680903 1.170275 0.839047 
v 0.680903 1.170275 0.839047 
v -0.223812 0.007914 2.378346 
v 2.064821 -0.606980 0.652680 
v 2.064821 -0.606980 0.652680 
v -0.223812 0.007914 2.378346 
v -0.110592 -0.169697 -0.104416 
v 0.680903 1.170275 0.839047 
v 2.064821 -0.606980 0.652680 
v -0.110592 -0.169697 -0.104416 
vt 0.000000 0.000000 
vt 0.000000 0.000000 
vt 0.000000 0.000000 
vt 0.000000 0.000000 
vt 0.000000 0.000000 
vt 0.000000 0.000000 
vt 0.000000 0.000000 
vt 0.000000 0.000000 
vt 0.000000 0.000000 
vt 0.000000 0.000000 
vt 0.000000 0.000000 
vt 0.000000 0.000000 
vn -3.159263 2.071913 -0.292290 
vn -3.159263 2.071913 -0.292290 
vn -3.159263 2.071913 -0.292290 
vn 2.952354 1.961656 3.216521 
vn 2.952354 1.961656 3.216521 
vn 2.952354 1.961656 3.216521 
vn -1.220139 -5.486753 0.336869 
vn -1.220139 -5.486753 0.336869 
vn -1.220139 -5.486753 0.336869 
vn 1.427048 1.453184 -3.261100 
vn 1.427048 1.453184 -3.261100 
vn 1.427048 1.453184 -3.261100 
s off
g Tetra
f 1/1/1 2/2/2 3/3/3
f 4/4/4 5/5/5 6/6/6
f 7/7/7 8/8/8 9/9/9
f 10/10/10 11/11/11 12/12/12
